# xmcd
#
# Track frame offsets: 
#        150
#        8768
#        20545
#        40120
#        63525
#        80245
#        91648
#        111820
#        122318
#        133945
#
# Disc length: 2438 seconds
#
# Revision: 2
# Processed by: cddbd v1.5.2PL0 Copyright (c) Steve Scherf et al.
# Submitted via: ExactAudioCopy v0.99pb5
#
DISCID=7809840a
DTITLE=Charley Musselwhite Blues Band - Stone Blues
DYEAR=1968
DGENRE=Blues
TTITLE0=My Buddy Buddy Friends
TTITLE1=Everything's Gonna be Allright
TTITLE2=My Baby's Sweeter
TTITLE3=Clay's Tune
TTITLE4=Gone and Left Me
TTITLE5=Cry for Me Baby
TTITLE6=Hey Baby
TTITLE7=Juke
TTITLE8=She Belongs to Me
TTITLE9=Bag Gloom Brews
EXTD=Produced by Barry Goldberg.\nRecorded at Paramount Studios, Los A
EXTD=ngeles 1968.
EXTT0=
EXTT1=
EXTT2=
EXTT3=
EXTT4=
EXTT5=
EXTT6=
EXTT7=
EXTT8=
EXTT9=
PLAYORDER=
